# xmcd CD database file
#
# Track frame offsets:
#	150
#	13407
#	29072
#	46324
#	62651
#	76262
#	85303
#	102867
#	115182
#	127759
#	140633
#	159535
#	179937
#	199964
#
# Disc length: 2820 seconds
#
# Revision: 0
# Processed by: cddbd v1.5.1PL2 Copyright (c) Steve Scherf et al.
# Submitted via: CDex 1.51
#
DISCID=c70b020e
DTITLE=Shirley Bassey - Vocal Jazz
DYEAR=2001
DGENRE=Jazz
TTITLE0=What Now My Love
TTITLE1=Something
TTITLE2=As Long As He Needs Me
TTITLE3=Kiss Me Honey Honey
TTITLE4=As I Love You
TTITLE5=Big Spender
TTITLE6=Send In The Clowns
TTITLE7=I Am What I Am
TTITLE8=Goldfinger
TTITLE9=I Who Have Nothing
TTITLE10=Natalie
TTITLE11=Ans I Love You So
TTITLE12=Never Never Never
TTITLE13=For All We Know
EXTD=YEAR: 2001
EXTT0=
EXTT1=
EXTT2=
EXTT3=
EXTT4=
EXTT5=
EXTT6=
EXTT7=
EXTT8=
EXTT9=
EXTT10=
EXTT11=
EXTT12=
EXTT13=
PLAYORDER=
